<svg viewBox="0 0 32 32" xmlns="http://www.w3.org/2000/svg">
  <defs>
    <linearGradient id="f" x1="0" y1="0" x2="1" y2="1">
      <stop offset="0%" stop-color="#7DD3FC"/>
      <stop offset="100%" stop-color="#4338CA"/>
    </linearGradient>
  </defs>
  <circle cx="16" cy="16" r="14" fill="none" stroke="url(#f)" stroke-width="1.5"/>
  <g stroke="url(#f)" stroke-width="1.4" fill="none" stroke-linecap="round">
    <path d="M16 16 L16 7 M16 16 L9 12 M16 16 L23 12 M16 16 L9 20 M16 16 L23 20 M16 16 L16 25"/>
    <path d="M9 12 L16 7 L23 12" opacity="0.5"/>
    <path d="M9 20 L16 25 L23 20" opacity="0.5"/>
  </g>
  <g fill="#0F172A" stroke="url(#f)" stroke-width="1.2">
    <circle cx="16" cy="7" r="1.5"/>
    <circle cx="9"  cy="12" r="1.3"/>
    <circle cx="23" cy="12" r="1.3"/>
    <circle cx="9"  cy="20" r="1.3"/>
    <circle cx="23" cy="20" r="1.3"/>
    <circle cx="16" cy="25" r="1.5"/>
  </g>
  <polygon points="16,13 19,16 16,19 13,16" fill="url(#f)"/>
</svg>
