<svg viewBox="0 0 128 128" xmlns="http://www.w3.org/2000/svg" role="img" aria-label="Icemage logo">
  <defs>
    <linearGradient id="frost" x1="0" y1="0" x2="1" y2="1">
      <stop offset="0%"   stop-color="#7DD3FC"/>
      <stop offset="50%"  stop-color="#6366F1"/>
      <stop offset="100%" stop-color="#4338CA"/>
    </linearGradient>
    <radialGradient id="glow" cx="50%" cy="50%" r="50%">
      <stop offset="0%"   stop-color="#E0F2FE" stop-opacity="0.9"/>
      <stop offset="100%" stop-color="#4338CA" stop-opacity="0"/>
    </radialGradient>
    <filter id="soft"><feGaussianBlur stdDeviation="0.4"/></filter>
  </defs>

  <circle cx="64" cy="64" r="58" fill="url(#glow)"/>

  <circle cx="64" cy="64" r="58" fill="none" stroke="url(#frost)" stroke-width="1.2" stroke-dasharray="2 3" opacity="0.7"/>
  <circle cx="64" cy="64" r="54" fill="none" stroke="url(#frost)" stroke-width="2"/>

  <g stroke="url(#frost)" stroke-width="2" stroke-linecap="round">
    <line x1="64" y1="6"   x2="64" y2="14"/>
    <line x1="64" y1="114" x2="64" y2="122"/>
    <line x1="6"  y1="64"  x2="14" y2="64"/>
    <line x1="114" y1="64" x2="122" y2="64"/>
    <line x1="23" y1="23"  x2="29" y2="29"/>
    <line x1="105" y1="23" x2="99" y2="29"/>
    <line x1="23" y1="105" x2="29" y2="99"/>
    <line x1="105" y1="105" x2="99" y2="99"/>
  </g>

  <circle cx="64" cy="64" r="38" fill="none" stroke="url(#frost)" stroke-width="1.5" stroke-dasharray="6 4" opacity="0.6"/>

  <g stroke="url(#frost)" stroke-width="2" fill="none" stroke-linecap="round">
    <line x1="64" y1="64" x2="64" y2="30"/>
    <line x1="64" y1="64" x2="34" y2="46"/>
    <line x1="64" y1="64" x2="94" y2="46"/>
    <line x1="64" y1="64" x2="34" y2="82"/>
    <line x1="64" y1="64" x2="94" y2="82"/>
    <line x1="64" y1="64" x2="64" y2="98"/>
    <path d="M34 46 L64 30 L94 46" opacity="0.55"/>
    <path d="M34 82 L64 98 L94 82" opacity="0.55"/>
  </g>

  <g stroke="#A5F3FC" stroke-width="1.3" stroke-linecap="round" opacity="0.85">
    <path d="M64 30 L60 34 M64 30 L68 34"/>
    <path d="M34 46 L32 50 M34 46 L38 48"/>
    <path d="M94 46 L96 50 M94 46 L90 48"/>
    <path d="M64 98 L60 94 M64 98 L68 94"/>
  </g>

  <g fill="#0F172A" stroke="url(#frost)" stroke-width="2">
    <circle cx="64" cy="30" r="4"/>
    <circle cx="34" cy="46" r="3.5"/>
    <circle cx="94" cy="46" r="3.5"/>
    <circle cx="34" cy="82" r="3.5"/>
    <circle cx="94" cy="82" r="3.5"/>
    <circle cx="64" cy="98" r="4"/>
  </g>

  <g filter="url(#soft)">
    <polygon points="64,54 74,64 64,74 54,64" fill="url(#frost)" stroke="#E0F2FE" stroke-width="1.5"/>
    <polygon points="64,58 70,64 64,70 58,64" fill="#E0F2FE" opacity="0.9"/>
  </g>

  <g fill="#A5F3FC" opacity="0.8">
    <circle cx="20" cy="40" r="1"/>
    <circle cx="108" cy="50" r="1.2"/>
    <circle cx="48" cy="20" r="0.8"/>
    <circle cx="100" cy="92" r="1"/>
    <circle cx="28" cy="92" r="0.9"/>
    <circle cx="80" cy="22" r="0.7"/>
  </g>
</svg>
