<svg viewBox="0 0 64 64" xmlns="http://www.w3.org/2000/svg" role="img" aria-label="Icemage mark">
  <defs>
    <linearGradient id="f" x1="0" y1="0" x2="1" y2="1">
      <stop offset="0%" stop-color="#7DD3FC"/>
      <stop offset="100%" stop-color="#4338CA"/>
    </linearGradient>
  </defs>
  <circle cx="32" cy="32" r="28" fill="none" stroke="url(#f)" stroke-width="1.5" stroke-dasharray="4 3" opacity="0.7"/>
  <circle cx="32" cy="32" r="24" fill="none" stroke="url(#f)" stroke-width="1.8"/>
  <g stroke="url(#f)" stroke-width="1.8" fill="none" stroke-linecap="round">
    <line x1="32" y1="32" x2="32" y2="14"/>
    <line x1="32" y1="32" x2="17" y2="23"/>
    <line x1="32" y1="32" x2="47" y2="23"/>
    <line x1="32" y1="32" x2="17" y2="41"/>
    <line x1="32" y1="32" x2="47" y2="41"/>
    <line x1="32" y1="32" x2="32" y2="50"/>
    <path d="M17 23 L32 14 L47 23" opacity="0.5"/>
    <path d="M17 41 L32 50 L47 41" opacity="0.5"/>
  </g>
  <g fill="#0F172A" stroke="url(#f)" stroke-width="1.6">
    <circle cx="32" cy="14" r="2.5"/>
    <circle cx="17" cy="23" r="2.2"/>
    <circle cx="47" cy="23" r="2.2"/>
    <circle cx="17" cy="41" r="2.2"/>
    <circle cx="47" cy="41" r="2.2"/>
    <circle cx="32" cy="50" r="2.5"/>
  </g>
  <polygon points="32,27 37,32 32,37 27,32" fill="url(#f)" stroke="#E0F2FE" stroke-width="1"/>
</svg>
